HIERARCHY
ROOT Hips
{
	OFFSET -0.001795 -0.223333 0.028219
	CHANNELS 6 Xposition Yposition Zposition Zrotation Yrotation Xrotation 
	JOINT LeftUpLeg
	{
		OFFSET 0.069520 -0.091406 -0.006815
		CHANNELS 3 Zrotation Yrotation Xrotation
		JOINT LeftLeg
		{
			OFFSET 0.034277 -0.375199 -0.004496
			CHANNELS 3 Zrotation Yrotation Xrotation
			JOINT LeftFoot
			{
				OFFSET -0.013596 -0.397961 -0.043693
				CHANNELS 3 Zrotation Yrotation Xrotation
				JOINT LeftToe
				{
					OFFSET 0.026358 -0.055791 0.119288
					CHANNELS 3 Zrotation Yrotation Xrotation
					End Site
					{
						OFFSET 0.000000 0.000000 0.000000
					}
				}
			}
		}
	}
	JOINT RightUpLeg
	{
		OFFSET -0.067670 -0.090522 -0.004320
		CHANNELS 3 Zrotation Yrotation Xrotation
		JOINT RightLeg
		{
			OFFSET -0.038290 -0.382569 -0.008850
			CHANNELS 3 Zrotation Yrotation Xrotation
			JOINT RightFoot
			{
				OFFSET 0.015774 -0.398415 -0.042312
				CHANNELS 3 Zrotation Yrotation Xrotation
				JOINT RightToe
				{
					OFFSET -0.025372 -0.048144 0.123348
					CHANNELS 3 Zrotation Yrotation Xrotation
					End Site
					{
						OFFSET 0.000000 0.000000 0.000000
					}
				}
			}
		}
	}
	JOINT Spine
	{
		OFFSET -0.002533 0.108963 -0.026696
		CHANNELS 3 Zrotation Yrotation Xrotation
		JOINT Spine1
		{
			OFFSET 0.005487 0.135180 0.001092
			CHANNELS 3 Zrotation Yrotation Xrotation
			JOINT Spine2
			{
				OFFSET 0.001457 0.052922 0.025425
				CHANNELS 3 Zrotation Yrotation Xrotation
				JOINT Neck
				{
					OFFSET -0.002778 0.213870 -0.042857
					CHANNELS 3 Zrotation Yrotation Xrotation
					JOINT Head
					{
						OFFSET 0.005152 0.064970 0.051349
						CHANNELS 3 Zrotation Yrotation Xrotation
						End Site
						{
							OFFSET 0.000000 0.000000 0.000000
						}
					}
				}
				JOINT LeftShoulder
				{
					OFFSET 0.078845 0.121749 -0.034090
					CHANNELS 3 Zrotation Yrotation Xrotation
					JOINT LeftArm
					{
						OFFSET 0.090977 0.030469 -0.008868
						CHANNELS 3 Zrotation Yrotation Xrotation
						JOINT LeftForeArm
						{
							OFFSET 0.259612 -0.012772 -0.027456
							CHANNELS 3 Zrotation Yrotation Xrotation
							JOINT LeftHand
							{
								OFFSET 0.249234 0.008986 -0.001171
								CHANNELS 3 Zrotation Yrotation Xrotation
								End Site
								{
									OFFSET 0.000000 0.000000 0.000000
								}
							}
						}
					}
				}
				JOINT RightShoulder
				{
					OFFSET -0.081759 0.118833 -0.038615
					CHANNELS 3 Zrotation Yrotation Xrotation
					JOINT RightArm
					{
						OFFSET -0.096012 0.032551 -0.009143
						CHANNELS 3 Zrotation Yrotation Xrotation
						JOINT RightForeArm
						{
							OFFSET -0.253742 -0.013329 -0.021401
							CHANNELS 3 Zrotation Yrotation Xrotation
							JOINT RightHand
							{
								OFFSET -0.255298 0.007772 -0.005559
								CHANNELS 3 Zrotation Yrotation Xrotation
								End Site
								{
									OFFSET 0.000000 0.000000 0.000000
								}
							}
						}
					}
				}
			}
		}
	}
}
MOTION
Frames: 18
Frame Time: 0.050000
-0.431214 0.926479 1.239667 -1.996452 -1.963932 -0.222693 16.976303 0.018508 -1.795343 -0.537322 -0.172733 8.555373 -3.486865 -5.305651 3.841172 0.000000 0.000000 0.000000 -16.629595 0.110889 -8.346687 1.524773 0.278651 14.482604 3.930605 2.753500 11.327767 0.000000 0.000000 0.000000 4.758153 -0.799623 9.351168 -6.890519 2.468517 -18.410305 -2.514509 6.410042 29.357972 8.187757 -2.332246 -26.046582 0.000000 0.000000 0.000000 -21.016478 -5.681449 0.554566 -40.373841 3.759022 -7.483746 8.388234 -50.754002 -2.069915 0.000000 0.000000 0.000000 31.137825 -2.320738 -1.335645 54.573370 5.954575 -5.924915 1.695009 34.349767 2.883679 0.000000 0.000000 0.000000 
-0.472847 0.922494 1.240480 -1.174699 -0.342849 -0.116813 18.002049 -0.004523 -2.830316 0.099617 -0.339176 9.367156 -2.710859 -2.602735 5.945623 0.000000 0.000000 0.000000 -15.433060 0.110044 -7.344990 1.285452 0.305315 15.010310 4.009410 5.238792 7.501530 0.000000 0.000000 0.000000 5.096407 -0.864935 9.631736 -6.606013 2.383564 -19.288244 -2.166347 7.181751 29.699888 7.596792 -1.427328 -27.895315 0.000000 0.000000 0.000000 -21.192923 -5.723263 0.018803 -40.213634 3.732949 -7.307083 8.865656 -50.994384 -2.594300 0.000000 0.000000 0.000000 30.177771 -3.130739 -1.095846 55.250564 7.486372 -5.449860 2.634098 34.327879 3.342468 0.000000 0.000000 0.000000 
-0.511385 0.922124 1.239416 -1.114648 1.791062 -0.529368 18.478837 0.025394 -4.943388 1.457647 -0.786721 12.391038 -2.417670 -1.011060 7.748312 0.000000 0.000000 0.000000 -13.174128 0.127083 -5.244743 1.922808 0.062494 13.860139 1.414899 2.068850 2.816473 0.000000 0.000000 0.000000 6.752816 -1.148270 10.753138 -6.736776 2.463206 -19.424663 -2.529772 7.252736 29.297511 7.625238 -1.163682 -28.231417 0.000000 0.000000 0.000000 -21.845739 -5.689905 -0.553722 -40.027613 4.493833 -7.330845 10.222110 -54.943471 -3.835351 0.000000 0.000000 0.000000 29.295250 -2.314330 0.022377 55.516202 8.719506 -4.934576 1.177267 34.530769 3.018584 0.000000 0.000000 0.000000 
-0.543446 0.925523 1.238018 -0.975314 2.625436 -0.105550 19.135081 0.109509 -6.879070 1.512911 -0.894355 13.834601 -1.569817 1.673009 10.265397 0.000000 0.000000 0.000000 -11.472097 0.163703 -5.808969 2.936315 -0.196677 15.331510 0.098578 -0.121065 0.771103 0.000000 0.000000 0.000000 7.563817 -1.268770 10.881420 -6.553762 2.409620 -19.757454 -1.884694 8.392267 28.994964 7.780235 -1.139757 -26.977422 0.000000 0.000000 0.000000 -22.510974 -6.088868 -0.989389 -41.208891 6.195816 -7.895155 10.874260 -59.976743 -4.986887 0.000000 0.000000 0.000000 28.335809 -1.189852 1.369586 53.387392 10.536714 -4.157094 0.128363 33.036534 2.539583 0.000000 0.000000 0.000000 
-0.567620 0.931616 1.237984 -0.320394 4.620628 0.284120 17.987653 0.106317 -9.745572 0.611487 -0.815037 15.326827 -0.116131 4.695091 11.211087 0.000000 0.000000 0.000000 -10.671682 0.135421 -5.006499 3.595541 -0.432376 14.159794 -0.614302 -1.976341 0.978275 0.000000 0.000000 0.000000 8.180122 -1.322774 10.482698 -7.137619 2.614938 -19.470531 -1.090104 9.539168 28.699930 6.236636 0.131922 -26.655786 0.000000 0.000000 0.000000 -23.778131 -6.054131 -2.118010 -40.570406 7.791997 -7.892957 4.317828 -66.773522 -2.063007 0.000000 0.000000 0.000000 27.265494 -1.251954 2.146557 52.932130 12.430095 -3.434124 -1.298097 31.056373 2.072645 0.000000 0.000000 0.000000 
-0.584769 0.936388 1.239771 0.628085 6.578872 0.676922 15.971099 -0.007789 -12.498358 -1.854019 -0.375530 17.381915 2.558278 9.276528 11.274886 0.000000 0.000000 0.000000 -10.193990 0.093035 -3.920806 3.851235 -0.553524 13.272404 -1.204653 -3.234392 0.394991 0.000000 0.000000 0.000000 7.963090 -1.278828 10.065547 -6.739092 2.492941 -20.443871 -0.607655 10.693201 29.433302 7.398731 -0.192580 -26.359887 0.000000 0.000000 0.000000 -23.503343 -6.007805 -2.964544 -41.803004 9.839411 -8.652483 -8.538133 -72.429508 6.372084 0.000000 0.000000 0.000000 26.334063 -1.187286 2.965940 52.780242 13.661015 -3.047035 -1.944967 29.764805 1.882450 0.000000 0.000000 0.000000 
-0.595866 0.939909 1.242992 1.243694 9.409164 1.098866 13.793286 -0.272507 -15.380840 -3.946152 -0.083053 20.225836 3.817595 11.211950 9.986732 0.000000 0.000000 0.000000 -9.927031 0.006914 -2.417566 4.229093 -0.704534 11.605385 -2.072350 -5.575625 0.928407 0.000000 0.000000 0.000000 8.116220 -1.243102 9.323201 -7.584298 2.748299 -20.502017 0.018467 11.615819 29.838924 8.024489 -0.215511 -25.740685 0.000000 0.000000 0.000000 -22.912384 -5.740494 -3.937180 -41.956890 10.214344 -8.639959 -26.845991 -73.798201 19.487524 0.000000 0.000000 0.000000 26.151532 -1.372666 3.706527 51.501383 14.431640 -2.944686 -2.894413 28.328571 1.571969 0.000000 0.000000 0.000000 
-0.601708 0.940898 1.246905 1.947528 11.472522 1.517636 12.273025 -0.532665 -17.384665 -6.324514 0.392912 21.279456 5.172696 13.613020 10.246402 0.000000 0.000000 0.000000 -9.623006 -0.066145 -0.769885 4.342871 -0.735094 9.479544 -2.964785 -7.862014 1.148591 0.000000 0.000000 0.000000 7.932839 -1.244679 9.267021 -8.142699 2.871505 -21.148738 0.978485 13.666870 30.259116 8.183882 0.312359 -25.999140 0.000000 0.000000 0.000000 -22.686975 -6.571022 -4.665501 -42.010245 11.338475 -8.711936 -40.490292 -73.481420 28.778705 0.000000 0.000000 0.000000 25.852867 -2.258382 4.136772 50.574834 14.531007 -3.083495 -2.261179 27.963301 1.739428 0.000000 0.000000 0.000000 
-0.603338 0.941168 1.251518 2.299044 14.393933 2.085367 11.480859 -0.840272 -19.672718 -7.561692 0.517282 21.457595 5.306001 14.526251 12.147484 0.000000 0.000000 0.000000 -9.548403 -0.173802 0.626032 4.982081 -0.907384 7.997240 -3.698993 -9.763974 1.608341 0.000000 0.000000 0.000000 7.840969 -1.189917 8.602165 -8.033344 2.890842 -20.788502 1.275266 14.019858 30.081138 8.059296 0.641086 -25.381126 0.000000 0.000000 0.000000 -22.158767 -6.510173 -5.296668 -42.217726 11.860302 -8.821207 -43.437830 -71.318914 29.234309 0.000000 0.000000 0.000000 25.496645 -2.298581 4.656503 49.177143 14.716233 -3.074337 -2.558484 27.511099 1.601484 0.000000 0.000000 0.000000 
-0.600722 0.939665 1.256701 2.675960 16.960879 2.746571 11.884649 -1.073520 -22.137680 -9.028052 0.741368 20.339048 5.173064 14.928302 13.630059 0.000000 0.000000 0.000000 -9.744617 -0.279968 1.860153 5.331939 -1.002462 6.834367 -4.215004 -11.080879 2.192449 0.000000 0.000000 0.000000 8.200674 -1.220968 8.247638 -9.094769 3.148154 -20.896339 1.788327 14.497657 30.171612 7.401020 1.300204 -24.966505 0.000000 0.000000 0.000000 -21.678335 -6.984572 -5.641945 -42.122869 12.354423 -8.804503 -43.394091 -69.671346 27.653740 0.000000 0.000000 0.000000 25.404920 -2.831717 4.859677 48.384071 15.642352 -2.765540 -2.151040 27.361855 1.676106 0.000000 0.000000 0.000000 
-0.593960 0.937903 1.262692 2.931679 18.624254 3.287099 12.627517 -1.186144 -23.466227 -9.006314 0.712596 16.733411 4.979973 15.211320 15.144480 0.000000 0.000000 0.000000 -9.660066 -0.351816 2.764643 5.119615 -0.973434 6.292177 -4.424084 -11.638150 1.832137 0.000000 0.000000 0.000000 8.012021 -1.209973 8.135241 -9.037975 3.135157 -20.923198 2.160577 15.320260 30.317561 7.389911 1.543832 -24.533152 0.000000 0.000000 0.000000 -21.937849 -7.187857 -6.297415 -41.796307 12.736943 -8.672337 -39.384404 -68.105703 23.650970 0.000000 0.000000 0.000000 25.604528 -3.331332 5.127079 47.068423 16.457979 -2.658513 -3.052123 27.566639 1.530828 0.000000 0.000000 0.000000 
-0.582841 0.934699 1.270172 3.091819 20.881571 2.920788 12.886537 -1.314638 -23.617724 -7.005226 0.365095 12.289825 2.805918 13.003307 17.140655 0.000000 0.000000 0.000000 -9.627796 -0.554987 5.466457 4.652903 -0.849373 4.457580 -4.107154 -10.916056 2.014504 0.000000 0.000000 0.000000 7.925401 -1.273191 8.607298 -9.526564 3.327291 -20.187890 2.524115 15.174576 30.338337 8.333423 1.159654 -24.558576 0.000000 0.000000 0.000000 -21.423583 -7.989698 -6.128845 -42.698754 12.335081 -8.732880 -32.933622 -67.601352 18.599277 0.000000 0.000000 0.000000 25.551079 -3.448005 5.378124 47.172351 18.052307 -2.026097 -4.990418 27.520558 1.160869 0.000000 0.000000 0.000000 
-0.566647 0.931936 1.279446 2.813585 21.820580 2.608951 13.048592 -1.375885 -23.887681 -5.104663 0.143513 9.790723 0.361097 10.163551 18.266551 0.000000 0.000000 0.000000 -9.973261 -0.685224 7.050376 4.145242 -0.755352 4.330660 -3.726113 -9.990327 2.118397 0.000000 0.000000 0.000000 7.682106 -1.351502 9.359782 -9.782473 3.425535 -19.888703 2.938625 15.849728 30.285304 9.288694 0.927251 -25.474816 0.000000 0.000000 0.000000 -21.765065 -8.202894 -6.596002 -42.160790 11.942675 -8.285540 -27.793917 -65.765133 14.405714 0.000000 0.000000 0.000000 26.403551 -3.970289 5.611156 46.568458 18.934249 -1.935113 -7.301249 28.857428 0.854251 0.000000 0.000000 0.000000 
-0.544627 0.927813 1.290809 2.208170 23.453318 2.926064 13.025226 -1.539302 -24.372684 -5.199140 0.164553 8.404513 -1.290989 8.232708 18.611257 0.000000 0.000000 0.000000 -10.755391 -0.818676 8.278168 4.407433 -0.836923 4.305940 -3.820251 -10.257724 2.268550 0.000000 0.000000 0.000000 7.690803 -1.325986 8.980810 -9.684706 3.459582 -19.213776 2.949341 15.432961 30.077703 8.981972 1.291476 -26.095932 0.000000 0.000000 0.000000 -21.767445 -8.694118 -6.533555 -42.360929 11.493119 -8.136893 -21.184731 -65.024746 9.907237 0.000000 0.000000 0.000000 26.771231 -3.832170 5.998452 46.088582 19.965813 -1.672163 -9.799590 27.720046 0.320749 0.000000 0.000000 0.000000 
-0.516571 0.924103 1.303844 1.562441 22.754084 3.305006 12.725969 -1.536194 -24.361094 -4.776400 0.116098 8.680624 -1.544074 8.138761 19.462441 0.000000 0.000000 0.000000 -11.444554 -0.756062 7.882673 3.975162 -0.817796 6.663696 -3.997192 -10.601205 3.414803 0.000000 0.000000 0.000000 7.388329 -1.217921 8.431931 -10.019131 3.460070 -19.915038 4.130548 15.711244 31.111327 9.554502 1.071195 -26.597872 0.000000 0.000000 0.000000 -21.931089 -8.112861 -6.988089 -42.490456 11.124876 -8.052407 -20.033195 -63.060063 8.836131 0.000000 0.000000 0.000000 26.191458 -4.532866 5.438899 46.760998 20.575179 -1.380219 -10.664310 28.456309 0.319822 0.000000 0.000000 0.000000 
-0.483364 0.923828 1.318747 1.020129 22.783948 3.277742 11.451115 -1.622528 -23.733562 -4.795894 0.047215 10.360110 -2.068864 6.634282 17.566352 0.000000 0.000000 0.000000 -11.219116 -0.753875 7.802877 2.309405 -0.540895 9.580474 -4.073548 -10.710950 4.405451 0.000000 0.000000 0.000000 6.329416 -1.098842 8.486599 -9.016747 3.265360 -19.601936 3.973439 16.405074 30.296302 10.543074 0.512026 -26.099553 0.000000 0.000000 0.000000 -22.513557 -8.671645 -7.296232 -41.439811 11.166051 -7.499164 -19.170810 -62.253156 8.097436 0.000000 0.000000 0.000000 26.673858 -4.936606 5.561823 47.754312 20.618715 -1.309535 -13.041570 27.963853 0.001037 0.000000 0.000000 0.000000 
-0.447533 0.926596 1.335259 0.876653 23.159988 2.694289 9.906630 -1.672126 -22.522928 -5.328687 0.023219 12.293738 -1.302125 7.204572 16.207229 0.000000 0.000000 0.000000 -11.729852 -0.819824 8.535199 0.275411 -0.148795 12.941276 -3.387767 -8.959759 8.805358 0.000000 0.000000 0.000000 4.858296 -0.891999 8.207058 -8.506349 3.219149 -18.767037 3.688611 15.671904 30.400250 11.982397 -0.711908 -25.010836 0.000000 0.000000 0.000000 -22.879428 -9.360138 -6.845925 -40.585009 9.410270 -6.708989 -13.106290 -61.591869 4.629362 0.000000 0.000000 0.000000 27.602768 -4.879310 5.769783 48.601364 20.622888 -1.435747 -13.678087 28.413132 -0.059990 0.000000 0.000000 0.000000 
-0.411965 0.932730 1.352835 0.400353 22.972551 1.772837 8.204928 -1.549847 -19.917162 -5.547337 0.025188 12.899581 -0.617579 7.143194 13.843294 0.000000 0.000000 0.000000 -12.283696 -0.734474 5.829665 -0.859898 -0.255813 21.631533 -3.629890 -9.528915 13.959212 0.000000 0.000000 0.000000 4.114535 -0.818923 8.354610 -8.022577 3.133802 -18.574161 3.155805 15.011759 30.815822 12.662962 -1.732302 -23.166786 0.000000 0.000000 0.000000 -23.020702 -10.086204 -6.157564 -39.074324 7.423054 -5.819910 -10.103444 -61.862288 3.102398 0.000000 0.000000 0.000000 28.596975 -4.549965 6.134778 49.043887 20.384680 -1.787017 -13.583153 28.683827 -0.021743 0.000000 0.000000 0.000000 
